<svg width="113" height="112" viewBox="0 0 113 112" fill="none" xmlns="http://www.w3.org/2000/svg">
<rect x="1.1998" y="0.4" width="111.2" height="111.2" rx="55.6" fill="#F4F5FA"/>
<path d="M51.7995 56C56.77 56 60.7995 51.9706 60.7995 47C60.7995 42.0294 56.77 38 51.7995 38C46.8289 38 42.7995 42.0294 42.7995 47C42.7995 51.9706 46.8289 56 51.7995 56Z" fill="#D0D5DD"/>
<path d="M51.7995 62C46.1382 62 41.1066 65.0891 37.9179 69.8767C37.2194 70.9255 36.8701 71.4499 36.9103 72.1198C36.9417 72.6414 37.2836 73.28 37.7004 73.5952C38.2356 74 38.9718 74 40.4442 74H63.1548C64.6271 74 65.3633 74 65.8986 73.5952C66.3154 73.28 66.6573 72.6414 66.6886 72.1198C66.7288 71.4499 66.3796 70.9255 65.681 69.8767C62.4924 65.0891 57.4607 62 51.7995 62Z" fill="#D0D5DD"/>
<path d="M68.7995 63.6738C71.7113 65.1365 74.2077 67.4839 76.03 70.4193C76.3908 71.0005 76.5712 71.2912 76.6336 71.6937C76.7604 72.5115 76.2011 73.5171 75.4394 73.8407C75.0645 74 74.6428 74 73.7995 74M64.7995 55.0645C67.7629 53.5918 69.7995 50.5337 69.7995 47C69.7995 43.4663 67.7629 40.4082 64.7995 38.9355M60.7995 47C60.7995 51.9706 56.77 56 51.7995 56C46.8289 56 42.7995 51.9706 42.7995 47C42.7995 42.0294 46.8289 38 51.7995 38C56.77 38 60.7995 42.0294 60.7995 47ZM37.9179 69.8767C41.1066 65.0891 46.1382 62 51.7995 62C57.4607 62 62.4924 65.0891 65.681 69.8767C66.3796 70.9255 66.7288 71.4499 66.6886 72.1198C66.6573 72.6414 66.3154 73.28 65.8986 73.5952C65.3633 74 64.6271 74 63.1548 74H40.4442C38.9718 74 38.2356 74 37.7004 73.5952C37.2836 73.28 36.9417 72.6414 36.9103 72.1198C36.8701 71.4499 37.2194 70.9255 37.9179 69.8767Z" stroke="#D0D5DD" stroke-width="0.8" stroke-linecap="round" stroke-linejoin="round"/>
<rect x="1.1998" y="0.4" width="111.2" height="111.2" rx="55.6" stroke="#E1E2E9" stroke-width="0.8"/>
</svg>
