<svg width="49" height="48" viewBox="0 0 49 48" fill="none" xmlns="http://www.w3.org/2000/svg">
<path d="M19.7995 24C24.77 24 28.7995 19.9706 28.7995 15C28.7995 10.0294 24.77 6 19.7995 6C14.8289 6 10.7995 10.0294 10.7995 15C10.7995 19.9706 14.8289 24 19.7995 24Z" fill="#D0D5DD"/>
<path d="M19.7995 30C14.1382 30 9.10655 33.0891 5.91794 37.8767C5.2194 38.9255 4.87014 39.4499 4.91035 40.1198C4.94165 40.6414 5.28357 41.28 5.70036 41.5952C6.23563 42 6.97182 42 8.44419 42H31.1548C32.6271 42 33.3633 42 33.8986 41.5952C34.3154 41.28 34.6573 40.6414 34.6886 40.1198C34.7288 39.4499 34.3796 38.9255 33.681 37.8767C30.4924 33.0891 25.4607 30 19.7995 30Z" fill="#D0D5DD"/>
<path d="M36.7995 31.6738C39.7113 33.1365 42.2077 35.4839 44.03 38.4193C44.3908 39.0005 44.5712 39.2912 44.6336 39.6937C44.7604 40.5115 44.2011 41.5171 43.4394 41.8407C43.0645 42 42.6428 42 41.7995 42M32.7995 23.0645C35.7629 21.5918 37.7995 18.5337 37.7995 15C37.7995 11.4663 35.7629 8.40822 32.7995 6.93552M28.7995 15C28.7995 19.9706 24.77 24 19.7995 24C14.8289 24 10.7995 19.9706 10.7995 15C10.7995 10.0294 14.8289 6 19.7995 6C24.77 6 28.7995 10.0294 28.7995 15ZM5.91794 37.8767C9.10655 33.0891 14.1382 30 19.7995 30C25.4607 30 30.4924 33.0891 33.681 37.8767C34.3796 38.9255 34.7288 39.4499 34.6886 40.1198C34.6573 40.6414 34.3154 41.28 33.8986 41.5952C33.3633 42 32.6271 42 31.1548 42H8.44419C6.97182 42 6.23563 42 5.70036 41.5952C5.28357 41.28 4.94165 40.6414 4.91035 40.1198C4.87014 39.4499 5.2194 38.9255 5.91794 37.8767Z" stroke="#D0D5DD" stroke-width="0.8" stroke-linecap="round" stroke-linejoin="round"/>
</svg>
